<svg width="21" height="20" viewBox="0 0 21 20" fill="none" xmlns="http://www.w3.org/2000/svg">
<g clip-path="url(#clip0_243_65)">
<path d="M4.22201 18.25C3.71784 18.25 3.28624 18.0705 2.92721 17.7115C2.56819 17.3525 2.38867 16.9209 2.38867 16.4167V3.58337C2.38867 3.07921 2.56819 2.64761 2.92721 2.28858C3.28624 1.92955 3.71784 1.75004 4.22201 1.75004H11.5553V3.58337H4.22201V16.4167H17.0553V10H18.8887V16.4167C18.8887 16.9209 18.7092 17.3525 18.3501 17.7115C17.9911 18.0705 17.5595 18.25 17.0553 18.25H4.22201ZM5.13867 14.5834H16.1387L12.7012 10L9.95117 13.6667L7.88867 10.9167L5.13867 14.5834ZM16.1387 8.16671V4.33962L14.672 5.78337L13.3887 4.50004L17.0553 0.833374L20.722 4.50004L19.4387 5.78337L17.972 4.33962V8.16671H16.1387Z" fill="#F2F8F3"/>
</g>
<defs>
<clipPath id="clip0_243_65">
<rect width="20" height="20" fill="white" transform="translate(0.649414)"/>
</clipPath>
</defs>
</svg>
