<svg width="20" height="24" viewBox="0 0 20 24" fill="none" xmlns="http://www.w3.org/2000/svg">
<path d="M8.9001 14.5L7.2751 21.7C7.2251 21.9333 7.10426 22.125 6.9126 22.275C6.72093 22.425 6.5001 22.5 6.2501 22.5C5.91676 22.5 5.6501 22.375 5.4501 22.125C5.2501 21.875 5.18343 21.5917 5.2501 21.275L8.0751 6.95C8.1751 6.46667 8.4001 6.10417 8.7501 5.8625C9.1001 5.62083 9.46676 5.5 9.8501 5.5C10.2334 5.5 10.5876 5.58333 10.9126 5.75C11.2376 5.91667 11.5001 6.16667 11.7001 6.5L12.7001 8.1C13.0001 8.58333 13.3876 9.02083 13.8626 9.4125C14.3376 9.80417 14.8834 10.0917 15.5001 10.275V9.25C15.5001 9.03333 15.5709 8.85417 15.7126 8.7125C15.8543 8.57083 16.0334 8.5 16.2501 8.5C16.4668 8.5 16.6459 8.57083 16.7876 8.7125C16.9293 8.85417 17.0001 9.03333 17.0001 9.25V21.75C17.0001 21.9667 16.9293 22.1458 16.7876 22.2875C16.6459 22.4292 16.4668 22.5 16.2501 22.5C16.0334 22.5 15.8543 22.4292 15.7126 22.2875C15.5709 22.1458 15.5001 21.9667 15.5001 21.75V12.35C14.7001 12.1667 13.9584 11.875 13.2751 11.475C12.5918 11.075 12.0001 10.5833 11.5001 10L10.9001 13L12.7001 14.7C12.8001 14.8 12.8751 14.9125 12.9251 15.0375C12.9751 15.1625 13.0001 15.2917 13.0001 15.425V21.5C13.0001 21.7833 12.9043 22.0208 12.7126 22.2125C12.5209 22.4042 12.2834 22.5 12.0001 22.5C11.7168 22.5 11.4793 22.4042 11.2876 22.2125C11.0959 22.0208 11.0001 21.7833 11.0001 21.5V16.5L8.9001 14.5ZM4.4501 12.45L3.3001 12.225C3.03343 12.175 2.8251 12.0375 2.6751 11.8125C2.5251 11.5875 2.4751 11.3333 2.5251 11.05L3.2751 7.125C3.3751 6.55833 3.6751 6.12917 4.1751 5.8375C4.6751 5.54583 5.21676 5.45833 5.8001 5.575C6.08343 5.625 6.29593 5.7625 6.4376 5.9875C6.57926 6.2125 6.6251 6.46667 6.5751 6.75L5.6251 11.65C5.5751 11.9333 5.4376 12.15 5.2126 12.3C4.9876 12.45 4.73343 12.5 4.4501 12.45ZM11.5001 5C10.9501 5 10.4793 4.80417 10.0876 4.4125C9.69593 4.02083 9.5001 3.55 9.5001 3C9.5001 2.45 9.69593 1.97917 10.0876 1.5875C10.4793 1.19583 10.9501 1 11.5001 1C12.0501 1 12.5209 1.19583 12.9126 1.5875C13.3043 1.97917 13.5001 2.45 13.5001 3C13.5001 3.55 13.3043 4.02083 12.9126 4.4125C12.5209 4.80417 12.0501 5 11.5001 5Z" fill="#2FAC66"/>
</svg>
