<svg width="18" height="11" viewBox="0 0 18 11" fill="none" xmlns="http://www.w3.org/2000/svg">
<path d="M1.10045 10.4026C0.885186 10.4026 0.704787 10.326 0.559253 10.173C0.41355 10.0199 0.340698 9.83026 0.340698 9.60409C0.340698 9.37775 0.41355 9.18822 0.559253 9.03549C0.704787 8.88258 0.885186 8.80613 1.10045 8.80613H12.8766C13.0918 8.80613 13.2722 8.88267 13.4178 9.03575C13.5635 9.18884 13.6363 9.37846 13.6363 9.60462C13.6363 9.83097 13.5635 10.0206 13.4178 10.1735C13.2722 10.3262 13.0918 10.4026 12.8766 10.4026H1.10045ZM3.05832 6.47291C2.84306 6.47291 2.66258 6.39637 2.51688 6.24329C2.37134 6.0902 2.29857 5.90058 2.29857 5.67442C2.29857 5.44807 2.37134 5.25854 2.51688 5.10581C2.66258 4.95291 2.84306 4.87645 3.05832 4.87645H14.8345C15.0497 4.87645 15.2301 4.953 15.3756 5.10608C15.5213 5.25916 15.5942 5.44878 15.5942 5.67495C15.5942 5.90129 15.5213 6.09083 15.3756 6.24355C15.2301 6.39646 15.0497 6.47291 14.8345 6.47291H3.05832ZM5.02582 2.54323C4.81056 2.54323 4.63016 2.46669 4.48463 2.31361C4.33893 2.16053 4.26607 1.9709 4.26607 1.74474C4.26607 1.5184 4.33893 1.32877 4.48463 1.17587C4.63016 1.02314 4.81056 0.946777 5.02582 0.946777H16.802C17.0172 0.946777 17.1976 1.02332 17.3431 1.1764C17.4888 1.32948 17.5617 1.51911 17.5617 1.74527C17.5617 1.97161 17.4888 2.16115 17.3431 2.31388C17.1976 2.46678 17.0172 2.54323 16.802 2.54323H5.02582Z" fill="#2FAC66"/>
</svg>
