<svg width="34" height="30" viewBox="0 0 34 30" fill="none" xmlns="http://www.w3.org/2000/svg">
<path d="M24.167 1.5C26.4044 1.50007 28.1956 2.23379 29.6475 3.68555C31.0994 5.13749 31.833 6.92937 31.833 9.16699C31.8329 11.952 30.817 14.5378 28.6689 16.9639C26.3504 19.5825 23.7108 22.2227 20.748 24.8838L20.7393 24.8916L17.9062 27.4746L17.8809 27.498L17.8564 27.5225C17.7095 27.6694 17.5496 27.7684 17.3652 27.832C17.1049 27.9218 16.8742 27.958 16.667 27.958C16.4597 27.958 16.2282 27.9218 15.9678 27.832C15.7835 27.7684 15.6244 27.6693 15.4775 27.5225L15.4531 27.499L15.4277 27.4756L12.5537 24.8516H12.5547C9.64264 22.1868 7.01781 19.5481 4.67969 16.9365C2.52092 14.5251 1.50008 11.9488 1.5 9.16699C1.5 6.92937 2.23361 5.13749 3.68555 3.68555C5.13749 2.23361 6.92937 1.5 9.16699 1.5C10.4188 1.50005 11.5859 1.76366 12.6855 2.29004C13.8039 2.82543 14.7444 3.55047 15.5215 4.46875L16.667 5.82227L17.8115 4.46875C18.5886 3.55041 19.529 2.82546 20.6475 2.29004C21.7473 1.76353 22.915 1.5 24.167 1.5Z" stroke="#5B605C" stroke-width="3"/>
</svg>
