<svg width="24" height="20" viewBox="0 0 24 20" fill="none" xmlns="http://www.w3.org/2000/svg">
<path d="M1.95218 19.75C1.75357 19.75 1.57301 19.7003 1.41051 19.601C1.24801 19.5017 1.12163 19.3708 1.03135 19.2083C0.94107 19.0458 0.891417 18.8698 0.882389 18.6802C0.873362 18.4906 0.923014 18.3056 1.03135 18.125L11.0522 0.791667C11.1605 0.611111 11.3004 0.475694 11.472 0.385417C11.6435 0.295139 11.8195 0.25 12.0001 0.25C12.1807 0.25 12.3567 0.295139 12.5282 0.385417C12.6998 0.475694 12.8397 0.611111 12.948 0.791667L22.9688 18.125C23.0772 18.3056 23.1268 18.4906 23.1178 18.6802C23.1088 18.8698 23.0591 19.0458 22.9688 19.2083C22.8786 19.3708 22.7522 19.5017 22.5897 19.601C22.4272 19.7003 22.2466 19.75 22.048 19.75H1.95218ZM3.82093 17.5833H20.1793L12.0001 3.5L3.82093 17.5833ZM12.0001 16.5C12.307 16.5 12.5643 16.3962 12.772 16.1885C12.9796 15.9809 13.0834 15.7236 13.0834 15.4167C13.0834 15.1097 12.9796 14.8524 12.772 14.6448C12.5643 14.4372 12.307 14.3333 12.0001 14.3333C11.6932 14.3333 11.4359 14.4372 11.2282 14.6448C11.0206 14.8524 10.9168 15.1097 10.9168 15.4167C10.9168 15.7236 11.0206 15.9809 11.2282 16.1885C11.4359 16.3962 11.6932 16.5 12.0001 16.5ZM12.0001 13.25C12.307 13.25 12.5643 13.1462 12.772 12.9385C12.9796 12.7309 13.0834 12.4736 13.0834 12.1667V8.91667C13.0834 8.60972 12.9796 8.35243 12.772 8.14479C12.5643 7.93715 12.307 7.83333 12.0001 7.83333C11.6932 7.83333 11.4359 7.93715 11.2282 8.14479C11.0206 8.35243 10.9168 8.60972 10.9168 8.91667V12.1667C10.9168 12.4736 11.0206 12.7309 11.2282 12.9385C11.4359 13.1462 11.6932 13.25 12.0001 13.25Z" fill="#2FAC66"/>
</svg>
