<svg width="20" height="20" viewBox="0 0 20 20" fill="none" xmlns="http://www.w3.org/2000/svg">
<path d="M3.40022 7.49998C4.05022 7.49998 4.66688 7.61664 5.25022 7.84998C5.83355 8.08331 6.36688 8.42498 6.85022 8.87498L16.4002 18H17.0002C17.2836 18 17.521 17.9041 17.7127 17.7125C17.9044 17.5208 18.0002 17.2833 18.0002 17C18.0002 16.8666 17.9877 16.725 17.9627 16.575C17.9377 16.425 17.8502 16.275 17.7002 16.125L13.1252 11.55L11.3502 6.19998L9.50022 6.64998C8.86688 6.81664 8.29188 6.69998 7.77522 6.29998C7.25855 5.89998 7.00022 5.37498 7.00022 4.72498V2.62498L6.30022 2.27498L2.45022 7.42498C2.43355 7.44164 2.42522 7.45414 2.42522 7.46248C2.42522 7.47081 2.41688 7.48331 2.40022 7.49998H3.40022ZM3.40022 9.49998H2.25022C2.30022 9.61664 2.36272 9.72498 2.43772 9.82498C2.51272 9.92498 2.60022 10.0166 2.70022 10.1L10.8002 17.475C10.9835 17.6583 11.1919 17.7916 11.4252 17.875C11.6585 17.9583 11.9002 18 12.1502 18H13.5002L5.47522 10.325C5.19188 10.0416 4.87105 9.83331 4.51272 9.69998C4.15438 9.56664 3.78355 9.49998 3.40022 9.49998ZM12.1502 20C11.6502 20 11.1752 19.9083 10.7252 19.725C10.2752 19.5416 9.85855 19.2833 9.47522 18.95L1.35022 11.575C0.583549 10.875 0.154383 10.0166 0.062716 8.99998C-0.0289507 7.98331 0.233549 7.05831 0.850216 6.22498L4.70022 1.07498C4.98355 0.691644 5.36272 0.437477 5.83772 0.312477C6.31272 0.187477 6.76688 0.241644 7.20022 0.474977L7.90022 0.824977C8.25022 1.00831 8.52105 1.25831 8.71272 1.57498C8.90438 1.89164 9.00022 2.24164 9.00022 2.62498V4.72498L10.8502 4.24998C11.3502 4.11664 11.8335 4.17914 12.3002 4.43748C12.7669 4.69581 13.0836 5.06664 13.2502 5.54998L14.8752 10.45L19.1252 14.7C19.4585 15.0333 19.6877 15.3916 19.8127 15.775C19.9377 16.1583 20.0002 16.5666 20.0002 17C20.0002 17.8333 19.7085 18.5416 19.1252 19.125C18.5419 19.7083 17.8335 20 17.0002 20H12.1502Z" fill="#2FAC66"/>
</svg>
