<svg width="40" height="40" viewBox="0 0 40 40" fill="none" xmlns="http://www.w3.org/2000/svg">
<path d="M27.167 6.5C29.4044 6.50007 31.1956 7.23379 32.6475 8.68555C34.0994 10.1375 34.833 11.9294 34.833 14.167C34.8329 16.952 33.817 19.5378 31.6689 21.9639C29.3504 24.5825 26.7108 27.2227 23.748 29.8838L23.7393 29.8916L20.9062 32.4746L20.8809 32.498L20.8564 32.5225C20.7095 32.6694 20.5496 32.7684 20.3652 32.832C20.1049 32.9218 19.8742 32.958 19.667 32.958C19.4597 32.958 19.2282 32.9218 18.9678 32.832C18.7835 32.7684 18.6244 32.6693 18.4775 32.5225L18.4531 32.499L18.4277 32.4756L15.5537 29.8516H15.5547C12.6426 27.1868 10.0178 24.5481 7.67969 21.9365C5.52092 19.5251 4.50008 16.9488 4.5 14.167C4.5 11.9294 5.23361 10.1375 6.68555 8.68555C8.13749 7.23361 9.92937 6.5 12.167 6.5C13.4188 6.50005 14.5859 6.76366 15.6855 7.29004C16.8039 7.82543 17.7444 8.55047 18.5215 9.46875L19.667 10.8223L20.8115 9.46875C21.5886 8.55041 22.529 7.82546 23.6475 7.29004C24.7473 6.76353 25.915 6.5 27.167 6.5Z" stroke="#5B605C" stroke-width="3"/>
</svg>
