<svg width="135" height="45" viewBox="0 0 135 45" fill="none" xmlns="http://www.w3.org/2000/svg">
<path d="M55.3725 35.4737V15.1879H47.4824V10.8434L68.1081 10.8434V15.1879L60.218 15.1879V35.4737H55.3735H55.3725Z" fill="#232624"/>
<path d="M64.8203 35.4737V17.6852H69.0768V20.7637C70.2189 18.3689 71.4995 17.1719 73.9911 17.1719C75.3753 17.1719 76.3441 17.4458 77.1752 18.0959L76.345 22.0985C75.6533 21.7222 74.9259 21.4148 73.8535 21.4148C70.8776 21.4148 69.3887 23.6038 69.3887 27.0596V35.4746H64.8203V35.4737Z" fill="#232624"/>
<path d="M82.6426 27.8449C82.816 30.8554 84.6847 32.2238 87.0725 32.2238C88.8724 32.2238 90.2567 31.1973 90.741 29.5895L94.9975 30.4791C93.7518 34.1398 90.9832 35.987 86.7955 35.987C82.0546 35.987 78.0742 32.9429 78.0742 26.5799C78.0742 20.2169 82.0885 17.1728 86.7955 17.1728C91.5024 17.1728 95.3085 20.2514 95.3085 25.9642C95.3085 26.7513 95.2736 27.7433 95.2736 27.8458H82.6417L82.6426 27.8449ZM82.7114 24.6638H90.6364C90.4979 22.4404 88.9751 20.9351 86.6909 20.9351C84.8571 20.9351 83.0224 22.201 82.7114 24.6638Z" fill="#232624"/>
<path d="M98.2842 10.8434H102.853V24.6294H103.718C104.756 24.6294 105.586 24.458 106.486 23.2955C107.144 22.4404 107.871 20.3874 108.182 19.8406C109.255 17.9246 110.501 17.6852 112.854 17.6852H113.789L113.409 21.7222H112.751C111.435 21.7222 111.193 22.2699 110.675 23.4669C110.017 24.9032 109.325 25.8273 107.975 26.1691V26.306C109.221 26.5799 110.398 27.8113 111.47 29.556L114.551 35.4737H109.463L106.902 30.2742C106.175 28.9058 105.206 28.3926 103.822 28.3926H102.854V35.4737H98.2851V10.8434H98.2842Z" fill="#232624"/>
<path d="M117.248 15.1534V10.8434H121.816V15.1534H117.248ZM117.248 35.4737V17.6852H121.816V35.4737H117.248Z" fill="#232624"/>
<path d="M135 35.3023C134.308 35.6442 132.682 35.8156 132.024 35.8156C128.252 35.8156 127.075 33.7635 127.075 30.2742V21.2434H124.514V17.6861H127.075V13.718L131.643 12.2472V17.6861H134.966V21.2434H131.643V29.2486C131.643 30.7883 131.643 31.8828 133.27 31.8828C133.616 31.8828 134.135 31.8484 134.689 31.6779L135 35.3042V35.3023Z" fill="#232624"/>
<path d="M31.1628 33.0314C34.1651 32.4958 37.0929 31.7459 39.9283 30.8014C37.173 39.0478 29.3121 45 20.0461 45C11.9412 45 4.91233 40.4469 1.43325 33.7887C2.99092 34.45 4.70596 34.8152 6.50675 34.8152C6.68674 34.8152 6.86389 34.8114 7.04199 34.804C9.28757 34.2637 13.2878 33.0621 16.96 30.7325C22.4481 27.2515 14.3771 26.7578 14.3771 26.7578C14.3771 26.7578 8.88425 25.1547 12.304 22.3072C8.40366 22.8325 4.62963 23.7501 1.02239 25.0169C0.985642 25.029 0.948891 25.042 0.913083 25.056C0.605884 25.1631 0.302454 25.274 -0.000976562 25.3876L0.131892 25.0169L0.996008 22.6127L2.84203 17.4737L4.08779 14.0086L5.15451 11.039L5.6219 9.73867L6.42854 10.836L6.56423 11.0223L8.6694 13.8856L10.6813 11.1489L14.1481 6.4319L18.8739 0L23.0842 5.72863L29.0784 13.8838L32.1513 9.70327L33.8692 7.36618L36.4314 14.4976H36.4323L37.5009 17.4728L39.1406 22.0352L40.211 25.0159L40.3665 25.4472C40.0103 25.3131 39.6504 25.1827 39.2894 25.0551C39.2536 25.0411 39.2169 25.029 39.1783 25.0159C34.1443 23.2489 28.7862 22.1619 23.2133 21.8666C22.4152 21.8228 21.6123 21.7967 20.8047 21.7883C20.8264 22.5466 21.4983 24.9424 28.7457 26.4243C33.8211 27.462 32.827 30.6048 31.1637 33.0323L31.1628 33.0314Z" fill="url(#paint0_linear_260_269)"/>
<defs>
<linearGradient id="paint0_linear_260_269" x1="20.1828" y1="7.53571" x2="20.1828" y2="47.4377" gradientUnits="userSpaceOnUse">
<stop offset="0.1" stop-color="#2FAC66"/>
<stop offset="0.92" stop-color="#4BC8EA"/>
</linearGradient>
</defs>
</svg>
