<svg width="20" height="24" viewBox="0 0 20 24" fill="none" xmlns="http://www.w3.org/2000/svg">
<path d="M10 12C10.6875 12 11.276 11.765 11.7656 11.295C12.2552 10.825 12.5 10.26 12.5 9.6C12.5 8.94 12.2552 8.375 11.7656 7.905C11.276 7.435 10.6875 7.2 10 7.2C9.3125 7.2 8.72396 7.435 8.23438 7.905C7.74479 8.375 7.5 8.94 7.5 9.6C7.5 10.26 7.74479 10.825 8.23438 11.295C8.72396 11.765 9.3125 12 10 12ZM10 20.82C12.5417 18.58 14.4271 16.545 15.6562 14.715C16.8854 12.885 17.5 11.26 17.5 9.84C17.5 7.66 16.776 5.875 15.3281 4.485C13.8802 3.095 12.1042 2.4 10 2.4C7.89583 2.4 6.11979 3.095 4.67188 4.485C3.22396 5.875 2.5 7.66 2.5 9.84C2.5 11.26 3.11458 12.885 4.34375 14.715C5.57292 16.545 7.45833 18.58 10 20.82ZM10 24C6.64583 21.26 4.14062 18.715 2.48438 16.365C0.828125 14.015 0 11.84 0 9.84C0 6.84 1.00521 4.45 3.01562 2.67C5.02604 0.89 7.35417 0 10 0C12.6458 0 14.974 0.89 16.9844 2.67C18.9948 4.45 20 6.84 20 9.84C20 11.84 19.1719 14.015 17.5156 16.365C15.8594 18.715 13.3542 21.26 10 24Z" fill="#2FAC66"/>
</svg>
