<svg width="22" height="22" viewBox="0 0 22 22" fill="none" xmlns="http://www.w3.org/2000/svg">
<path d="M11 22C9.47833 22 8.04833 21.7113 6.71 21.1337C5.37167 20.5562 4.2075 19.7725 3.2175 18.7825C2.2275 17.7925 1.44375 16.6283 0.86625 15.29C0.28875 13.9517 0 12.5217 0 11C0 9.47833 0.28875 8.04833 0.86625 6.71C1.44375 5.37167 2.2275 4.2075 3.2175 3.2175C4.2075 2.2275 5.37167 1.44375 6.71 0.86625C8.04833 0.28875 9.47833 0 11 0C12.5217 0 13.9517 0.28875 15.29 0.86625C16.6283 1.44375 17.7925 2.2275 18.7825 3.2175C19.7725 4.2075 20.5562 5.37167 21.1337 6.71C21.7113 8.04833 22 9.47833 22 11C22 11.495 21.9725 11.9808 21.9175 12.4575C21.8625 12.9342 21.7708 13.4017 21.6425 13.86C21.3858 13.5667 21.0879 13.3192 20.7488 13.1175C20.4096 12.9158 20.0383 12.7783 19.635 12.705C19.69 12.43 19.7313 12.1504 19.7587 11.8663C19.7862 11.5821 19.8 11.2933 19.8 11C19.8 8.54333 18.9475 6.4625 17.2425 4.7575C15.5375 3.0525 13.4567 2.2 11 2.2C8.54333 2.2 6.4625 3.0525 4.7575 4.7575C3.0525 6.4625 2.2 8.54333 2.2 11C2.2 13.4567 3.0525 15.5375 4.7575 17.2425C6.4625 18.9475 8.54333 19.8 11 19.8C11.935 19.8 12.8287 19.6625 13.6812 19.3875C14.5337 19.1125 15.3175 18.7275 16.0325 18.2325C16.2525 18.5442 16.5229 18.8192 16.8438 19.0575C17.1646 19.2958 17.5083 19.4792 17.875 19.6075C16.94 20.3592 15.8904 20.9458 14.7262 21.3675C13.5621 21.7892 12.32 22 11 22ZM18.975 17.6C18.59 17.6 18.2646 17.4671 17.9988 17.2013C17.7329 16.9354 17.6 16.61 17.6 16.225C17.6 15.84 17.7329 15.5146 17.9988 15.2487C18.2646 14.9829 18.59 14.85 18.975 14.85C19.36 14.85 19.6854 14.9829 19.9513 15.2487C20.2171 15.5146 20.35 15.84 20.35 16.225C20.35 16.61 20.2171 16.9354 19.9513 17.2013C19.6854 17.4671 19.36 17.6 18.975 17.6ZM14.63 16.17L9.9 11.44V5.5H12.1V10.56L16.17 14.63L14.63 16.17Z" fill="#2FAC66"/>
</svg>
