<svg width="22" height="22" viewBox="0 0 22 22" fill="none" xmlns="http://www.w3.org/2000/svg">
<path d="M6.6 14.3H8.8V11H12.65V13.75L16.5 9.9L12.65 6.05V8.8H7.7C7.38833 8.8 7.12708 8.90542 6.91625 9.11625C6.70542 9.32708 6.6 9.58833 6.6 9.9V14.3ZM11 22C10.725 22 10.4546 21.945 10.1888 21.835C9.92292 21.725 9.68 21.56 9.46 21.34L0.66 12.54C0.44 12.32 0.275 12.0771 0.165 11.8112C0.055 11.5454 0 11.275 0 11C0 10.725 0.055 10.4546 0.165 10.1888C0.275 9.92292 0.44 9.68 0.66 9.46L9.46 0.66C9.68 0.44 9.92292 0.275 10.1888 0.165C10.4546 0.055 10.725 0 11 0C11.275 0 11.5454 0.055 11.8112 0.165C12.0771 0.275 12.32 0.44 12.54 0.66L21.34 9.46C21.56 9.68 21.725 9.92292 21.835 10.1888C21.945 10.4546 22 10.725 22 11C22 11.275 21.945 11.5454 21.835 11.8112C21.725 12.0771 21.56 12.32 21.34 12.54L12.54 21.34C12.32 21.56 12.0771 21.725 11.8112 21.835C11.5454 21.945 11.275 22 11 22ZM6.6 15.4L11 19.8L19.8 11L11 2.2L2.2 11L6.6 15.4Z" fill="#2FAC66"/>
</svg>
