<svg width="29" height="29" viewBox="0 0 29 29" fill="none" xmlns="http://www.w3.org/2000/svg">
<path d="M21.7498 25.3749H8.45817V9.66658L16.9165 1.20825L18.4269 2.71867C18.5679 2.85964 18.6837 3.05096 18.7743 3.29263C18.8649 3.53429 18.9103 3.76589 18.9103 3.98742V4.41034L17.5811 9.66658H25.3748C26.0193 9.66658 26.5832 9.90825 27.0665 10.3916C27.5498 10.8749 27.7915 11.4388 27.7915 12.0833V14.4999C27.7915 14.6409 27.7714 14.7919 27.7311 14.953C27.6908 15.1142 27.6505 15.2652 27.6103 15.4062L23.9853 23.9249C23.804 24.3277 23.5019 24.6701 23.079 24.952C22.6561 25.2339 22.213 25.3749 21.7498 25.3749ZM10.8748 22.9583H21.7498L25.3748 14.4999V12.0833H14.4998L16.1311 5.43742L10.8748 10.6937V22.9583ZM8.45817 9.66658V12.0833H4.83317V22.9583H8.45817V25.3749H2.4165V9.66658H8.45817Z" fill="#2FAC66"/>
</svg>
