<svg width="254" height="254" viewBox="0 0 254 254" fill="none" xmlns="http://www.w3.org/2000/svg">
<path d="M126.856 0.406738C57.0193 0.406738 0.40625 57.0198 0.40625 126.857C0.40625 196.694 57.0193 253.307 126.856 253.307C196.693 253.307 253.306 196.694 253.306 126.857C253.306 57.0198 196.693 0.406738 126.856 0.406738ZM126.856 62.2464C151.862 62.2464 172.21 82.5936 172.21 107.6C172.21 132.609 151.862 152.953 126.856 152.953C101.847 152.953 81.5029 132.609 81.5029 107.6C81.5029 82.5936 101.847 62.2464 126.856 62.2464ZM126.856 236.006C95.5669 236.006 67.5006 222.279 48.2971 200.535C57.2244 184.377 71.1817 171.097 87.7776 163.047C93.4229 160.31 100.012 160.355 105.86 163.162C112.444 166.326 119.508 167.928 126.859 167.928C134.207 167.928 141.274 166.323 147.858 163.162C153.711 160.352 160.301 160.31 165.941 163.047C182.536 171.095 196.491 184.377 205.418 200.535C186.212 222.276 158.146 236.006 126.856 236.006Z" fill="#2FAC66"/>
</svg>
